<svg width="48" height="48" viewBox="0 0 48 48" fill="none" xmlns="http://www.w3.org/2000/svg">
<path d="M24.0338 5.39526L7.41357 14.7023M24.0338 5.39526L40.5863 14.7402M24.0338 5.39526L14.1012 18.8836M24.0338 5.39526L33.2087 18.8836M7.41357 14.7023V33.3164M7.41357 14.7023L14.1012 18.8836M40.5863 14.7402V33.3164M40.5863 14.7402L33.2087 18.8836M40.5863 33.3164L23.9999 42.6046M40.5863 33.3164L33.2087 18.8836M40.5863 33.3164L24.0338 35.1627M23.9999 42.6046L7.41357 33.3164M23.9999 42.6046L24.0338 35.1627M7.41357 33.3164L14.1012 18.8836M7.41357 33.3164L24.0338 35.1627M33.2087 18.8836L24.0338 35.1627M33.2087 18.8836H14.1012M24.0338 35.1627L14.1012 18.8836" stroke="white" stroke-width="2.7907" stroke-linecap="round" stroke-linejoin="round"/>
</svg>
