<svg width="179" height="179" viewBox="0 0 179 179" fill="none" xmlns="http://www.w3.org/2000/svg">
<path d="M90.153 6L15 47.5211M90.153 6L165 47.6902M90.153 6L52.5 66.175M90.153 6L126.486 66.175M15 47.5211V130.563M15 47.5211L52.5 66.175M165 47.6902V130.563M165 47.6902L126.486 66.175M165 130.563L90 172M165 130.563L126.486 66.175M165 130.563L90 138.5M90 172L15 130.563M90 172V138.5M15 130.563L52.5 66.175M15 130.563L90 138.5M126.486 66.175L90 138.5M126.486 66.175H52.5M90 138.5L52.5 66.175" stroke="#649DF9" stroke-width="9.47917" stroke-linecap="round" stroke-linejoin="round"/>
</svg>
